M48
; DRILL file {KiCad 7.0.8} date 2023 November 06, Monday 20:52:01
; FORMAT={-:-/ absolute / inch / decimal}
; #@! TF.CreationDate,2023-11-06T20:52:01+00:00
; #@! TF.GenerationSoftware,Kicad,Pcbnew,7.0.8
; #@! TF.FileFunction,Plated,1,2,PTH
FMAT,2
INCH
; #@! TA.AperFunction,Plated,PTH,ComponentDrill
T1C0.0118
; #@! TA.AperFunction,Plated,PTH,ViaDrill
T2C0.0157
; #@! TA.AperFunction,Plated,PTH,ComponentDrill
T3C0.0320
; #@! TA.AperFunction,Plated,PTH,ComponentDrill
T4C0.0394
; #@! TA.AperFunction,Plated,PTH,ComponentDrill
T5C0.0400
; #@! TA.AperFunction,Plated,PTH,ComponentDrill
T6C0.0492
; #@! TA.AperFunction,Plated,PTH,ComponentDrill
T7C0.0512
%
G90
G05
T2
X0.7484Y-1.8976
X0.752Y-2.6697
X0.7638Y-3.4606
X0.8701Y-3.4331
X1.1339Y-2.8819
X1.1378Y-2.063
X1.1969Y-3.5591
X1.5118Y-1.937
X1.5157Y-3.4409
X1.5197Y-2.6969
X1.9483Y-2.122
X1.9483Y-2.8898
X1.9488Y-3.6181
X2.2717Y-1.7559
X2.2717Y-2.5118
X2.2717Y-3.2598
X2.6457Y-1.9409
X2.6457Y-2.689
X2.6964Y-3.4336
X3.0157Y-3.1614
X3.0197Y-1.6654
X3.0236Y-2.4213
X3.4055Y-4.0315
X3.4444Y-1.8425
X3.4444Y-2.5906
X3.4444Y-3.3465
X3.7638Y-3.2559
X3.7717Y-1.7598
X3.7717Y-2.5079
X3.8189Y-4.2008
X4.1407Y-1.937
X4.185Y-4.122
X4.1924Y-2.685
X4.1924Y-3.4331
X4.5118Y-1.8543
X4.5197Y-2.5984
X4.5236Y-3.3504
X4.5354Y-4.3425
X4.7756Y-3.5276
X4.8976Y-2.5276
X4.937Y-1.7795
X4.9619Y-4.3753
X5.0886Y-1.2106
X5.0886Y-1.2421
X5.248Y-4.7126
X5.4882Y-1.3691
X5.4882Y-1.6102
X5.4882Y-1.6899
X5.4882Y-1.7992
X5.4882Y-1.8661
X5.9291Y-1.2638
X5.9291Y-1.3937
X5.9291Y-1.4646
X5.9291Y-1.5
X5.9291Y-1.6654
X5.9291Y-1.7677
T3
X0.5433Y-3.0709
X0.5433Y-3.3071
X0.5472Y-1.5748
X0.5472Y-1.811
X0.5472Y-2.3189
X0.5472Y-2.5551
X1.2953Y-3.0866
X1.2953Y-3.3228
X1.2992Y-1.5906
X1.2992Y-1.8268
X1.2992Y-2.3346
X1.2992Y-2.5709
X2.0394Y-2.1299
X2.0394Y-2.3661
X2.0394Y-2.874
X2.0394Y-3.1102
X2.0433Y-1.3937
X2.0433Y-1.6299
X2.7874Y-2.0315
X2.7874Y-2.2677
X2.7913Y-1.2953
X2.7913Y-1.5315
X2.7913Y-2.7835
X2.7913Y-3.0197
X3.1696Y-3.6535
X3.1696Y-3.8898
X3.5433Y-2.1378
X3.5433Y-2.374
X3.5433Y-2.878
X3.5433Y-3.1142
X3.5472Y-1.3937
X3.5472Y-1.6299
X4.0009Y-3.9133
X4.0621Y-3.6851
X4.2953Y-1.4921
X4.2953Y-1.7283
X4.2953Y-2.2409
X4.2953Y-2.4772
X4.2953Y-2.9744
X4.2953Y-3.2106
X4.815Y-4.1613
X4.9331Y-3.9568
T4
X6.2835Y-1.3307
X6.2835Y-1.5276
T5
X5.5325Y-1.5537
X5.6575Y-1.3287
X5.7575Y-1.3287
X5.8825Y-1.5537
T6
X4.8583Y-3.685
X4.8583Y-3.8228
T7
X6.185Y-1.2913
X6.185Y-1.5669
T1
G00X0.6667Y-1.6108
M15
G01X0.6392Y-1.6108
M16
G05
G00X0.6667Y-3.1096
M15
G01X0.6392Y-3.1096
M16
G05
G00X0.6671Y-2.3596
M15
G01X0.6396Y-2.3596
M16
G05
G00X1.1037Y-1.6108
M15
G01X1.0762Y-1.6108
M16
G05
G00X1.1037Y-3.1096
M15
G01X1.0762Y-3.1096
M16
G05
G00X1.1041Y-2.3596
M15
G01X1.0766Y-2.3596
M16
G05
G00X1.4168Y-1.611
M15
G01X1.3893Y-1.611
M16
G05
G00X1.4168Y-2.3591
M15
G01X1.3893Y-2.3591
M16
G05
G00X1.4168Y-3.1071
M15
G01X1.3893Y-3.1071
M16
G05
G00X1.8538Y-1.611
M15
G01X1.8263Y-1.611
M16
G05
G00X1.8538Y-2.3591
M15
G01X1.8263Y-2.3591
M16
G05
G00X1.8538Y-3.1071
M15
G01X1.8263Y-3.1071
M16
G05
G00X2.1649Y-1.424
M15
G01X2.1373Y-1.424
M16
G05
G00X2.1649Y-2.172
M15
G01X2.1373Y-2.172
M16
G05
G00X2.1649Y-2.9201
M15
G01X2.1373Y-2.9201
M16
G05
G00X2.6019Y-1.424
M15
G01X2.5743Y-1.424
M16
G05
G00X2.6019Y-2.172
M15
G01X2.5743Y-2.172
M16
G05
G00X2.6019Y-2.9201
M15
G01X2.5743Y-2.9201
M16
G05
G00X2.9129Y-1.3305
M15
G01X2.8853Y-1.3305
M16
G05
G00X2.9129Y-2.0785
M15
G01X2.8853Y-2.0785
M16
G05
G00X2.9129Y-2.8266
M15
G01X2.8853Y-2.8266
M16
G05
G00X3.2869Y-3.6927
M15
G01X3.2594Y-3.6927
M16
G05
G00X3.3499Y-1.3305
M15
G01X3.3223Y-1.3305
M16
G05
G00X3.3499Y-2.0785
M15
G01X3.3223Y-2.0785
M16
G05
G00X3.3499Y-2.8266
M15
G01X3.3223Y-2.8266
M16
G05
G00X3.6609Y-1.424
M15
G01X3.6334Y-1.424
M16
G05
G00X3.6609Y-2.172
M15
G01X3.6334Y-2.172
M16
G05
G00X3.6609Y-2.9201
M15
G01X3.6334Y-2.9201
M16
G05
G00X3.7239Y-3.6927
M15
G01X3.6964Y-3.6927
M16
G05
G00X4.0979Y-1.424
M15
G01X4.0704Y-1.424
M16
G05
G00X4.0979Y-2.172
M15
G01X4.0704Y-2.172
M16
G05
G00X4.0979Y-2.9201
M15
G01X4.0704Y-2.9201
M16
G05
G00X4.1716Y-3.7547
M15
G01X4.145Y-3.7476
M16
G05
G00X4.409Y-1.5175
M15
G01X4.3814Y-1.5175
M16
G05
G00X4.409Y-2.2656
M15
G01X4.3814Y-2.2656
M16
G05
G00X4.409Y-3.0136
M15
G01X4.3814Y-3.0136
M16
G05
G00X4.5937Y-3.8678
M15
G01X4.5671Y-3.8607
M16
G05
G00X4.846Y-1.5175
M15
G01X4.8184Y-1.5175
M16
G05
G00X4.846Y-2.2656
M15
G01X4.8184Y-2.2656
M16
G05
G00X4.846Y-3.0136
M15
G01X4.8184Y-3.0136
M16
G05
G00X5.0255Y-4.0525
M15
G01X5.0016Y-4.0387
M16
G05
G00X5.4039Y-4.271
M15
G01X5.3801Y-4.2572
M16
G05
T0
M30
