M48
; DRILL file {KiCad 7.0.8} date 2023 November 06, Monday 20:52:01
; FORMAT={-:-/ absolute / inch / decimal}
; #@! TF.CreationDate,2023-11-06T20:52:01+00:00
; #@! TF.GenerationSoftware,Kicad,Pcbnew,7.0.8
; #@! TF.FileFunction,NonPlated,1,2,NPTH
FMAT,2
INCH
; #@! TA.AperFunction,NonPlated,NPTH,ComponentDrill
T1C0.0276
; #@! TA.AperFunction,NonPlated,NPTH,ComponentDrill
T2C0.0748
; #@! TA.AperFunction,NonPlated,NPTH,ComponentDrill
T3C0.1181
; #@! TA.AperFunction,NonPlated,NPTH,ComponentDrill
T4C0.1693
; #@! TA.AperFunction,NonPlated,NPTH,ComponentDrill
T5C0.1969
%
G90
G05
T1
X5.0354Y-1.2146
X5.0354Y-1.2169
X5.1535Y-1.215
X5.1535Y-1.2165
T2
X0.6549Y-1.8077
X0.6549Y-3.3065
X0.6553Y-2.5565
X1.088Y-1.8077
X1.088Y-3.3065
X1.0884Y-2.5565
X1.405Y-1.8079
X1.405Y-2.5559
X1.405Y-3.3039
X1.8381Y-1.8079
X1.8381Y-2.5559
X1.8381Y-3.3039
X2.1531Y-1.6209
X2.1531Y-2.3689
X2.1531Y-3.1169
X2.5861Y-1.6209
X2.5861Y-2.3689
X2.5861Y-3.1169
X2.9011Y-1.5274
X2.9011Y-2.2754
X2.9011Y-3.0234
X3.2751Y-3.8896
X3.3342Y-1.5274
X3.3342Y-2.2754
X3.3342Y-3.0234
X3.6491Y-1.6209
X3.6491Y-2.3689
X3.6491Y-3.1169
X3.7082Y-3.8896
X4.0822Y-1.6209
X4.0822Y-2.3689
X4.0822Y-3.1169
X4.1092Y-3.9418
X4.3971Y-1.7144
X4.3971Y-2.4624
X4.3971Y-3.2104
X4.5276Y-4.0539
X4.8302Y-1.7144
X4.8302Y-2.4624
X4.8302Y-3.2104
X4.9168Y-4.2171
X5.2919Y-4.4336
T3
X0.6746Y-1.9533
X0.6746Y-3.4522
X0.675Y-2.7022
X0.8715Y-2.04
X0.8715Y-2.04
X0.8715Y-3.5388
X0.8715Y-3.5388
X0.8719Y-2.7888
X0.8719Y-2.7888
X1.0683Y-1.9533
X1.0683Y-3.4522
X1.0687Y-2.7022
X1.4247Y-1.9535
X1.4247Y-2.7016
X1.4247Y-3.4496
X1.6216Y-2.0402
X1.6216Y-2.0402
X1.6216Y-2.7882
X1.6216Y-2.7882
X1.6216Y-3.5362
X1.6216Y-3.5362
X1.8184Y-1.9535
X1.8184Y-2.7016
X1.8184Y-3.4496
X2.1727Y-1.7665
X2.1727Y-2.5146
X2.1727Y-3.2626
X2.3696Y-1.8531
X2.3696Y-1.8531
X2.3696Y-2.6012
X2.3696Y-2.6012
X2.3696Y-3.3492
X2.3696Y-3.3492
X2.5664Y-1.7665
X2.5664Y-2.5146
X2.5664Y-3.2626
X2.9208Y-1.673
X2.9208Y-2.4211
X2.9208Y-3.1691
X3.1176Y-1.7596
X3.1176Y-1.7596
X3.1176Y-2.5077
X3.1176Y-2.5077
X3.1176Y-3.2557
X3.1176Y-3.2557
X3.2948Y-4.0352
X3.3145Y-1.673
X3.3145Y-2.4211
X3.3145Y-3.1691
X3.4916Y-4.1219
X3.4916Y-4.1219
X3.6688Y-1.7665
X3.6688Y-2.5146
X3.6688Y-3.2626
X3.6885Y-4.0352
X3.8656Y-1.8531
X3.8656Y-1.8531
X3.8656Y-2.6012
X3.8656Y-2.6012
X3.8656Y-3.3492
X3.8656Y-3.3492
X4.0625Y-1.7665
X4.0625Y-2.5146
X4.0625Y-3.2626
X4.0906Y-4.0876
X4.2583Y-4.2222
X4.2583Y-4.2222
X4.4168Y-1.86
X4.4168Y-2.6081
X4.4168Y-3.3561
X4.4708Y-4.1895
X4.6137Y-1.9467
X4.6137Y-1.9467
X4.6137Y-2.6947
X4.6137Y-2.6947
X4.6137Y-3.4427
X4.6137Y-3.4427
X4.8105Y-1.86
X4.8105Y-2.6081
X4.8105Y-3.3561
X4.861Y-4.353
X4.9882Y-4.5265
X4.9882Y-4.5265
X5.202Y-4.5499
T4
X1.25Y-2.1811
X1.25Y-2.9291
X3.4941Y-1.9528
X3.4941Y-3.4803
X5.1949Y-3.7008
X5.1969Y-1.8346
X6.2165Y-1.8346
X6.2165Y-3.7008
X6.2165Y-3.7008
T5
X0.8715Y-1.8077
X0.8715Y-3.3065
X0.8719Y-2.5565
X1.6216Y-1.8079
X1.6216Y-2.5559
X1.6216Y-3.3039
X2.3696Y-1.6209
X2.3696Y-2.3689
X2.3696Y-3.1169
X3.1176Y-1.5274
X3.1176Y-2.2754
X3.1176Y-3.0234
X3.4916Y-3.8896
X3.8656Y-1.6209
X3.8656Y-2.3689
X3.8656Y-3.1169
X4.3184Y-3.9978
X4.6137Y-1.7144
X4.6137Y-2.4624
X4.6137Y-3.2104
X5.1043Y-4.3253
T0
M30
