<?xml version="1.0" standalone="no"?>
 <!DOCTYPE svg PUBLIC "-//W3C//DTD SVG 1.1//EN" 
 "http://www.w3.org/Graphics/SVG/1.1/DTD/svg11.dtd"> 
<svg
  xmlns:svg="http://www.w3.org/2000/svg"
  xmlns="http://www.w3.org/2000/svg"
  xmlns:xlink="http://www.w3.org/1999/xlink"
  version="1.1"
  width="297.002200mm" height="210.007200mm" viewBox="0.000000 0.000000 297.002200 210.007200">
<title>SVG Image created as crn-x-kbd-choc-User_Drawings.svg date 2023/11/06 22:58:01 </title>
  <desc>Image generated by PCBNEW </desc>
<g style="fill:#000000; fill-opacity:1.000000;stroke:#000000; stroke-opacity:1.000000;
stroke-linecap:round; stroke-linejoin:round;"
 transform="translate(0 0) scale(1 1)">
</g>
<g style="fill:#000000; fill-opacity:0.0; 
stroke:#000000; stroke-width:0.000000; stroke-opacity:1; 
stroke-linecap:round; stroke-linejoin:round;">
</g>
<g style="fill:#000000; fill-opacity:0.0; 
stroke:#000000; stroke-width:0.150000; stroke-opacity:1; 
stroke-linecap:round; stroke-linejoin:round;">
<path d="M107.662500 34.020000
L126.712500 34.020000
" />
<path d="M107.662500 53.070000
L107.662500 34.020000
" />
<path d="M110.187500 36.545000
L111.187500 36.545000
" />
<path d="M110.187500 37.545000
L110.187500 36.545000
" />
<path d="M110.187500 50.545000
L110.187500 49.545000
" />
<path d="M111.187500 50.545000
L110.187500 50.545000
" />
<path d="M123.187500 50.545000
L124.187500 50.545000
" />
<path d="M123.187500 50.545000
L124.187500 50.545000
" />
<path d="M124.187500 36.545000
L123.187500 36.545000
" />
<path d="M124.187500 37.545000
L124.187500 36.545000
" />
<path d="M124.187500 50.545000
L124.187500 49.545000
" />
<path d="M124.187500 50.545000
L124.187500 49.545000
" />
<path d="M126.712500 34.020000
L126.712500 53.070000
" />
<path d="M126.712500 53.070000
L107.662500 53.070000
" />
<path d="M88.662500 31.645000
L107.712500 31.645000
" />
<path d="M88.662500 50.695000
L88.662500 31.645000
" />
<path d="M91.187500 34.170000
L92.187500 34.170000
" />
<path d="M91.187500 35.170000
L91.187500 34.170000
" />
<path d="M91.187500 48.170000
L91.187500 47.170000
" />
<path d="M92.187500 48.170000
L91.187500 48.170000
" />
<path d="M104.187500 48.170000
L105.187500 48.170000
" />
<path d="M104.187500 48.170000
L105.187500 48.170000
" />
<path d="M105.187500 34.170000
L104.187500 34.170000
" />
<path d="M105.187500 35.170000
L105.187500 34.170000
" />
<path d="M105.187500 48.170000
L105.187500 47.170000
" />
<path d="M105.187500 48.170000
L105.187500 47.170000
" />
<path d="M107.712500 31.645000
L107.712500 50.695000
" />
<path d="M107.712500 50.695000
L88.662500 50.695000
" />
<path d="M69.662500 29.270000
L88.712500 29.270000
" />
<path d="M69.662500 48.320000
L69.662500 29.270000
" />
<path d="M72.187500 31.795000
L73.187500 31.795000
" />
<path d="M72.187500 32.795000
L72.187500 31.795000
" />
<path d="M72.187500 45.795000
L72.187500 44.795000
" />
<path d="M73.187500 45.795000
L72.187500 45.795000
" />
<path d="M85.187500 45.795000
L86.187500 45.795000
" />
<path d="M85.187500 45.795000
L86.187500 45.795000
" />
<path d="M86.187500 31.795000
L85.187500 31.795000
" />
<path d="M86.187500 32.795000
L86.187500 31.795000
" />
<path d="M86.187500 45.795000
L86.187500 44.795000
" />
<path d="M86.187500 45.795000
L86.187500 44.795000
" />
<path d="M88.712500 29.270000
L88.712500 48.320000
" />
<path d="M88.712500 48.320000
L69.662500 48.320000
" />
<path d="M50.662500 31.645000
L69.712500 31.645000
" />
<path d="M50.662500 50.695000
L50.662500 31.645000
" />
<path d="M53.187500 34.170000
L54.187500 34.170000
" />
<path d="M53.187500 35.170000
L53.187500 34.170000
" />
<path d="M53.187500 48.170000
L53.187500 47.170000
" />
<path d="M54.187500 48.170000
L53.187500 48.170000
" />
<path d="M66.187500 48.170000
L67.187500 48.170000
" />
<path d="M66.187500 48.170000
L67.187500 48.170000
" />
<path d="M67.187500 34.170000
L66.187500 34.170000
" />
<path d="M67.187500 35.170000
L67.187500 34.170000
" />
<path d="M67.187500 48.170000
L67.187500 47.170000
" />
<path d="M67.187500 48.170000
L67.187500 47.170000
" />
<path d="M69.712500 31.645000
L69.712500 50.695000
" />
<path d="M69.712500 50.695000
L50.662500 50.695000
" />
<path d="M31.662500 36.395000
L50.712500 36.395000
" />
<path d="M31.662500 55.445000
L31.662500 36.395000
" />
<path d="M34.187500 38.920000
L35.187500 38.920000
" />
<path d="M34.187500 39.920000
L34.187500 38.920000
" />
<path d="M34.187500 52.920000
L34.187500 51.920000
" />
<path d="M35.187500 52.920000
L34.187500 52.920000
" />
<path d="M47.187500 52.920000
L48.187500 52.920000
" />
<path d="M47.187500 52.920000
L48.187500 52.920000
" />
<path d="M48.187500 38.920000
L47.187500 38.920000
" />
<path d="M48.187500 39.920000
L48.187500 38.920000
" />
<path d="M48.187500 52.920000
L48.187500 51.920000
" />
<path d="M48.187500 52.920000
L48.187500 51.920000
" />
<path d="M50.712500 36.395000
L50.712500 55.445000
" />
<path d="M50.712500 55.445000
L31.662500 55.445000
" />
<path d="M107.662500 72.020000
L126.712500 72.020000
" />
<path d="M107.662500 91.070000
L107.662500 72.020000
" />
<path d="M110.187500 74.545000
L111.187500 74.545000
" />
<path d="M110.187500 75.545000
L110.187500 74.545000
" />
<path d="M110.187500 88.545000
L110.187500 87.545000
" />
<path d="M111.187500 88.545000
L110.187500 88.545000
" />
<path d="M123.187500 88.545000
L124.187500 88.545000
" />
<path d="M123.187500 88.545000
L124.187500 88.545000
" />
<path d="M124.187500 74.545000
L123.187500 74.545000
" />
<path d="M124.187500 75.545000
L124.187500 74.545000
" />
<path d="M124.187500 88.545000
L124.187500 87.545000
" />
<path d="M124.187500 88.545000
L124.187500 87.545000
" />
<path d="M126.712500 72.020000
L126.712500 91.070000
" />
<path d="M126.712500 91.070000
L107.662500 91.070000
" />
<path d="M126.163608 96.851748
L142.661392 106.376748
" />
<path d="M116.638608 113.349532
L126.163608 96.851748
" />
<path d="M127.087822 100.300962
L127.953848 100.800962
" />
<path d="M126.587822 101.166988
L127.087822 100.300962
" />
<path d="M120.087822 112.425318
L120.587822 111.559292
" />
<path d="M120.953848 112.925318
L120.087822 112.425318
" />
<path d="M131.346152 118.925318
L132.212178 119.425318
" />
<path d="M131.346152 118.925318
L132.212178 119.425318
" />
<path d="M139.212178 107.300962
L138.346152 106.800962
" />
<path d="M138.712178 108.166988
L139.212178 107.300962
" />
<path d="M132.212178 119.425318
L132.712178 118.559292
" />
<path d="M132.212178 119.425318
L132.712178 118.559292
" />
<path d="M142.661392 106.376748
L133.136392 122.874532
" />
<path d="M133.136392 122.874532
L116.638608 113.349532
" />
<path d="M102.952308 89.879305
L121.353195 94.809808
" />
<path d="M98.021805 108.280192
L102.952308 89.879305
" />
<path d="M104.737753 92.971786
L105.703678 93.230605
" />
<path d="M104.478933 93.937712
L104.737753 92.971786
" />
<path d="M101.114286 106.494747
L101.373105 105.528822
" />
<path d="M102.080212 106.753567
L101.114286 106.494747
" />
<path d="M113.671322 109.859395
L114.637247 110.118214
" />
<path d="M113.671322 109.859395
L114.637247 110.118214
" />
<path d="M118.260714 96.595253
L117.294788 96.336433
" />
<path d="M118.001895 97.561178
L118.260714 96.595253
" />
<path d="M114.637247 110.118214
L114.896067 109.152288
" />
<path d="M114.637247 110.118214
L114.896067 109.152288
" />
<path d="M121.353195 94.809808
L116.422692 113.210695
" />
<path d="M116.422692 113.210695
L98.021805 108.280192
" />
<path d="M79.162500 89.270000
L98.212500 89.270000
" />
<path d="M79.162500 108.320000
L79.162500 89.270000
" />
<path d="M81.687500 91.795000
L82.687500 91.795000
" />
<path d="M81.687500 92.795000
L81.687500 91.795000
" />
<path d="M81.687500 105.795000
L81.687500 104.795000
" />
<path d="M82.687500 105.795000
L81.687500 105.795000
" />
<path d="M94.687500 105.795000
L95.687500 105.795000
" />
<path d="M94.687500 105.795000
L95.687500 105.795000
" />
<path d="M95.687500 91.795000
L94.687500 91.795000
" />
<path d="M95.687500 92.795000
L95.687500 91.795000
" />
<path d="M95.687500 105.795000
L95.687500 104.795000
" />
<path d="M95.687500 105.795000
L95.687500 104.795000
" />
<path d="M98.212500 89.270000
L98.212500 108.320000
" />
<path d="M98.212500 108.320000
L79.162500 108.320000
" />
<path d="M88.662500 69.645000
L107.712500 69.645000
" />
<path d="M88.662500 88.695000
L88.662500 69.645000
" />
<path d="M91.187500 72.170000
L92.187500 72.170000
" />
<path d="M91.187500 73.170000
L91.187500 72.170000
" />
<path d="M91.187500 86.170000
L91.187500 85.170000
" />
<path d="M92.187500 86.170000
L91.187500 86.170000
" />
<path d="M104.187500 86.170000
L105.187500 86.170000
" />
<path d="M104.187500 86.170000
L105.187500 86.170000
" />
<path d="M105.187500 72.170000
L104.187500 72.170000
" />
<path d="M105.187500 73.170000
L105.187500 72.170000
" />
<path d="M105.187500 86.170000
L105.187500 85.170000
" />
<path d="M105.187500 86.170000
L105.187500 85.170000
" />
<path d="M107.712500 69.645000
L107.712500 88.695000
" />
<path d="M107.712500 88.695000
L88.662500 88.695000
" />
<path d="M69.662500 67.270000
L88.712500 67.270000
" />
<path d="M69.662500 86.320000
L69.662500 67.270000
" />
<path d="M72.187500 69.795000
L73.187500 69.795000
" />
<path d="M72.187500 70.795000
L72.187500 69.795000
" />
<path d="M72.187500 83.795000
L72.187500 82.795000
" />
<path d="M73.187500 83.795000
L72.187500 83.795000
" />
<path d="M85.187500 83.795000
L86.187500 83.795000
" />
<path d="M85.187500 83.795000
L86.187500 83.795000
" />
<path d="M86.187500 69.795000
L85.187500 69.795000
" />
<path d="M86.187500 70.795000
L86.187500 69.795000
" />
<path d="M86.187500 83.795000
L86.187500 82.795000
" />
<path d="M86.187500 83.795000
L86.187500 82.795000
" />
<path d="M88.712500 67.270000
L88.712500 86.320000
" />
<path d="M88.712500 86.320000
L69.662500 86.320000
" />
<path d="M50.662500 69.645000
L69.712500 69.645000
" />
<path d="M50.662500 88.695000
L50.662500 69.645000
" />
<path d="M53.187500 72.170000
L54.187500 72.170000
" />
<path d="M53.187500 73.170000
L53.187500 72.170000
" />
<path d="M53.187500 86.170000
L53.187500 85.170000
" />
<path d="M54.187500 86.170000
L53.187500 86.170000
" />
<path d="M66.187500 86.170000
L67.187500 86.170000
" />
<path d="M66.187500 86.170000
L67.187500 86.170000
" />
<path d="M67.187500 72.170000
L66.187500 72.170000
" />
<path d="M67.187500 73.170000
L67.187500 72.170000
" />
<path d="M67.187500 86.170000
L67.187500 85.170000
" />
<path d="M67.187500 86.170000
L67.187500 85.170000
" />
<path d="M69.712500 69.645000
L69.712500 88.695000
" />
<path d="M69.712500 88.695000
L50.662500 88.695000
" />
<path d="M31.662500 74.395000
L50.712500 74.395000
" />
<path d="M31.662500 93.445000
L31.662500 74.395000
" />
<path d="M34.187500 76.920000
L35.187500 76.920000
" />
<path d="M34.187500 77.920000
L34.187500 76.920000
" />
<path d="M34.187500 90.920000
L34.187500 89.920000
" />
<path d="M35.187500 90.920000
L34.187500 90.920000
" />
<path d="M47.187500 90.920000
L48.187500 90.920000
" />
<path d="M47.187500 90.920000
L48.187500 90.920000
" />
<path d="M48.187500 76.920000
L47.187500 76.920000
" />
<path d="M48.187500 77.920000
L48.187500 76.920000
" />
<path d="M48.187500 90.920000
L48.187500 89.920000
" />
<path d="M48.187500 90.920000
L48.187500 89.920000
" />
<path d="M50.712500 74.395000
L50.712500 93.445000
" />
<path d="M50.712500 93.445000
L31.662500 93.445000
" />
<path d="M107.662500 53.020000
L126.712500 53.020000
" />
<path d="M107.662500 72.070000
L107.662500 53.020000
" />
<path d="M110.187500 55.545000
L111.187500 55.545000
" />
<path d="M110.187500 56.545000
L110.187500 55.545000
" />
<path d="M110.187500 69.545000
L110.187500 68.545000
" />
<path d="M111.187500 69.545000
L110.187500 69.545000
" />
<path d="M123.187500 69.545000
L124.187500 69.545000
" />
<path d="M123.187500 69.545000
L124.187500 69.545000
" />
<path d="M124.187500 55.545000
L123.187500 55.545000
" />
<path d="M124.187500 56.545000
L124.187500 55.545000
" />
<path d="M124.187500 69.545000
L124.187500 68.545000
" />
<path d="M124.187500 69.545000
L124.187500 68.545000
" />
<path d="M126.712500 53.020000
L126.712500 72.070000
" />
<path d="M126.712500 72.070000
L107.662500 72.070000
" />
<path d="M88.662500 50.645000
L107.712500 50.645000
" />
<path d="M88.662500 69.695000
L88.662500 50.645000
" />
<path d="M91.187500 53.170000
L92.187500 53.170000
" />
<path d="M91.187500 54.170000
L91.187500 53.170000
" />
<path d="M91.187500 67.170000
L91.187500 66.170000
" />
<path d="M92.187500 67.170000
L91.187500 67.170000
" />
<path d="M104.187500 67.170000
L105.187500 67.170000
" />
<path d="M104.187500 67.170000
L105.187500 67.170000
" />
<path d="M105.187500 53.170000
L104.187500 53.170000
" />
<path d="M105.187500 54.170000
L105.187500 53.170000
" />
<path d="M105.187500 67.170000
L105.187500 66.170000
" />
<path d="M105.187500 67.170000
L105.187500 66.170000
" />
<path d="M107.712500 50.645000
L107.712500 69.695000
" />
<path d="M107.712500 69.695000
L88.662500 69.695000
" />
<path d="M69.662500 48.270000
L88.712500 48.270000
" />
<path d="M69.662500 67.320000
L69.662500 48.270000
" />
<path d="M72.187500 50.795000
L73.187500 50.795000
" />
<path d="M72.187500 51.795000
L72.187500 50.795000
" />
<path d="M72.187500 64.795000
L72.187500 63.795000
" />
<path d="M73.187500 64.795000
L72.187500 64.795000
" />
<path d="M85.187500 64.795000
L86.187500 64.795000
" />
<path d="M85.187500 64.795000
L86.187500 64.795000
" />
<path d="M86.187500 50.795000
L85.187500 50.795000
" />
<path d="M86.187500 51.795000
L86.187500 50.795000
" />
<path d="M86.187500 64.795000
L86.187500 63.795000
" />
<path d="M86.187500 64.795000
L86.187500 63.795000
" />
<path d="M88.712500 48.270000
L88.712500 67.320000
" />
<path d="M88.712500 67.320000
L69.662500 67.320000
" />
<path d="M50.662500 50.645000
L69.712500 50.645000
" />
<path d="M50.662500 69.695000
L50.662500 50.645000
" />
<path d="M53.187500 53.170000
L54.187500 53.170000
" />
<path d="M53.187500 54.170000
L53.187500 53.170000
" />
<path d="M53.187500 67.170000
L53.187500 66.170000
" />
<path d="M54.187500 67.170000
L53.187500 67.170000
" />
<path d="M66.187500 67.170000
L67.187500 67.170000
" />
<path d="M66.187500 67.170000
L67.187500 67.170000
" />
<path d="M67.187500 53.170000
L66.187500 53.170000
" />
<path d="M67.187500 54.170000
L67.187500 53.170000
" />
<path d="M67.187500 67.170000
L67.187500 66.170000
" />
<path d="M67.187500 67.170000
L67.187500 66.170000
" />
<path d="M69.712500 50.645000
L69.712500 69.695000
" />
<path d="M69.712500 69.695000
L50.662500 69.695000
" />
<path d="M31.662500 55.395000
L50.712500 55.395000
" />
<path d="M31.662500 74.445000
L31.662500 55.395000
" />
<path d="M34.187500 57.920000
L35.187500 57.920000
" />
<path d="M34.187500 58.920000
L34.187500 57.920000
" />
<path d="M34.187500 71.920000
L34.187500 70.920000
" />
<path d="M35.187500 71.920000
L34.187500 71.920000
" />
<path d="M47.187500 71.920000
L48.187500 71.920000
" />
<path d="M47.187500 71.920000
L48.187500 71.920000
" />
<path d="M48.187500 57.920000
L47.187500 57.920000
" />
<path d="M48.187500 58.920000
L48.187500 57.920000
" />
<path d="M48.187500 71.920000
L48.187500 70.920000
" />
<path d="M48.187500 71.920000
L48.187500 70.920000
" />
<path d="M50.712500 55.395000
L50.712500 74.445000
" />
<path d="M50.712500 74.445000
L31.662500 74.445000
" />
<path d="M12.610000 36.390000
L31.660000 36.390000
" />
<path d="M12.610000 55.440000
L12.610000 36.390000
" />
<path d="M15.135000 38.915000
L16.135000 38.915000
" />
<path d="M15.135000 39.915000
L15.135000 38.915000
" />
<path d="M15.135000 52.915000
L15.135000 51.915000
" />
<path d="M16.135000 52.915000
L15.135000 52.915000
" />
<path d="M28.135000 52.915000
L29.135000 52.915000
" />
<path d="M28.135000 52.915000
L29.135000 52.915000
" />
<path d="M29.135000 38.915000
L28.135000 38.915000
" />
<path d="M29.135000 39.915000
L29.135000 38.915000
" />
<path d="M29.135000 52.915000
L29.135000 51.915000
" />
<path d="M29.135000 52.915000
L29.135000 51.915000
" />
<path d="M31.660000 36.390000
L31.660000 55.440000
" />
<path d="M31.660000 55.440000
L12.610000 55.440000
" />
</g>
<g style="fill:#000000; fill-opacity:0.0; 
stroke:#000000; stroke-width:0.120000; stroke-opacity:1; 
stroke-linecap:round; stroke-linejoin:round;">
<path d="M136.080000 50.280000
L153.860000 50.280000
" />
<path d="M153.860000 50.280000
L153.860000 29.280000
" />
<path d="M153.860000 29.280000
L136.080000 29.280000
" />
<path d="M136.080000 29.280000
L136.080000 50.280000
" />
<path d="M139.684189 32.994187
L141.462189 32.994187
" />
<path d="M141.462189 32.994187
L141.462189 35.661187
" />
<path d="M141.462189 35.661187
L139.684189 35.661187
" />
<path d="M139.684189 35.661187
L139.684189 32.994187
" />
<path d="M141.462189 31.597187
L139.684189 31.597187
" />
<path d="M139.684189 31.597187
L139.684189 28.930187
" />
<path d="M139.684189 28.930187
L141.462189 28.930187
" />
<path d="M141.462189 28.930187
L141.462189 31.597187
" />
<path d="M148.320197 28.930187
L150.098197 28.930187
" />
<path d="M150.098197 28.930187
L150.098197 31.597187
" />
<path d="M150.098197 31.597187
L148.320197 31.597187
" />
<path d="M148.320197 31.597187
L148.320197 28.930187
" />
<path d="M148.320197 32.994187
L150.098197 32.994187
" />
<path d="M150.098197 32.994187
L150.098197 35.661187
" />
<path d="M150.098197 35.661187
L148.320197 35.661187
" />
<path d="M148.320197 35.661187
L148.320197 32.994187
" />
<path d="M132.650000 29.300000
L125.900000 29.300000
" />
<path d="M125.900000 29.300000
L125.900000 32.200000
" />
<path d="M125.900000 32.200000
L132.650000 32.200000
" />
<path d="M132.650000 32.200000
L132.650000 29.300000
" />
</g>
<g style="fill:#000000; fill-opacity:0.0; 
stroke:#000000; stroke-width:0.150000; stroke-opacity:1; 
stroke-linecap:round; stroke-linejoin:round;">
<path d="M12.620000 55.410000
L31.670000 55.410000
" />
<path d="M12.620000 74.460000
L12.620000 55.410000
" />
<path d="M15.145000 57.935000
L16.145000 57.935000
" />
<path d="M15.145000 58.935000
L15.145000 57.935000
" />
<path d="M15.145000 71.935000
L15.145000 70.935000
" />
<path d="M16.145000 71.935000
L15.145000 71.935000
" />
<path d="M28.145000 71.935000
L29.145000 71.935000
" />
<path d="M28.145000 71.935000
L29.145000 71.935000
" />
<path d="M29.145000 57.935000
L28.145000 57.935000
" />
<path d="M29.145000 58.935000
L29.145000 57.935000
" />
<path d="M29.145000 71.935000
L29.145000 70.935000
" />
<path d="M29.145000 71.935000
L29.145000 70.935000
" />
<path d="M31.670000 55.410000
L31.670000 74.460000
" />
<path d="M31.670000 74.460000
L12.620000 74.460000
" />
<path d="M12.610000 74.460000
L31.660000 74.460000
" />
<path d="M12.610000 93.510000
L12.610000 74.460000
" />
<path d="M15.135000 76.985000
L16.135000 76.985000
" />
<path d="M15.135000 77.985000
L15.135000 76.985000
" />
<path d="M15.135000 90.985000
L15.135000 89.985000
" />
<path d="M16.135000 90.985000
L15.135000 90.985000
" />
<path d="M28.135000 90.985000
L29.135000 90.985000
" />
<path d="M28.135000 90.985000
L29.135000 90.985000
" />
<path d="M29.135000 76.985000
L28.135000 76.985000
" />
<path d="M29.135000 77.985000
L29.135000 76.985000
" />
<path d="M29.135000 90.985000
L29.135000 89.985000
" />
<path d="M29.135000 90.985000
L29.135000 89.985000
" />
<path d="M31.660000 74.460000
L31.660000 93.510000
" />
<path d="M31.660000 93.510000
L12.610000 93.510000
" />
</g>
<g style="fill:#000000; fill-opacity:0.0; 
stroke:#000000; stroke-width:0.120000; stroke-opacity:1; 
stroke-linecap:round; stroke-linejoin:round;">
<path d="M153.860000 50.280000
L136.080000 50.280000
" />
<path d="M136.080000 50.280000
L136.080000 29.280000
" />
<path d="M136.080000 29.280000
L153.860000 29.280000
" />
<path d="M153.860000 29.280000
L153.860000 50.280000
" />
<path d="M150.255811 32.994187
L148.477811 32.994187
" />
<path d="M148.477811 32.994187
L148.477811 35.661187
" />
<path d="M148.477811 35.661187
L150.255811 35.661187
" />
<path d="M150.255811 35.661187
L150.255811 32.994187
" />
<path d="M148.477811 31.597187
L150.255811 31.597187
" />
<path d="M150.255811 31.597187
L150.255811 28.930187
" />
<path d="M150.255811 28.930187
L148.477811 28.930187
" />
<path d="M148.477811 28.930187
L148.477811 31.597187
" />
<path d="M141.619803 32.994187
L139.841803 32.994187
" />
<path d="M139.841803 32.994187
L139.841803 35.661187
" />
<path d="M139.841803 35.661187
L141.619803 35.661187
" />
<path d="M141.619803 35.661187
L141.619803 32.994187
" />
<path d="M141.619803 28.930187
L139.841803 28.930187
" />
<path d="M139.841803 28.930187
L139.841803 31.597187
" />
<path d="M139.841803 31.597187
L141.619803 31.597187
" />
<path d="M141.619803 31.597187
L141.619803 28.930187
" />
<path d="M126.150000 29.310000
L132.900000 29.310000
" />
<path d="M132.900000 29.310000
L132.900000 32.210000
" />
<path d="M132.900000 32.210000
L126.150000 32.210000
" />
<path d="M126.150000 32.210000
L126.150000 29.310000
" />
<g >
</g>
<g >
</g>
<g >
</g>
<g >
</g>
<g >
</g>
<g >
</g>
<g >
</g>
<g >
</g>
<g >
</g>
<g >
</g>
<g >
</g>
<g >
</g>
<g >
</g>
<g >
</g>
<g >
</g>
<g >
</g>
<g >
</g>
<g >
</g>
<g >
</g>
<g >
</g>
<g >
</g>
<g >
</g>
<g >
</g>
<g >
</g>
<g >
</g>
<g >
</g>
<g >
</g>
<g >
</g>
<g >
</g>
<g >
</g>
<g >
</g>
<g >
</g>
<g >
</g>
<g >
</g>
<g >
</g>
<g >
</g>
<g >
</g>
<g >
</g>
<g >
</g>
<g >
</g>
<g >
</g>
<g >
</g>
<g >
</g>
<g >
</g>
<g >
</g>
<g >
</g>
<g >
</g>
<g >
</g>
<g >
</g>
<g >
</g>
<g >
</g>
<g >
</g>
<g >
</g>
<g >
</g>
<g >
</g>
<g >
</g>
<g >
</g>
<g >
</g>
<g >
</g>
<g >
</g>
<g >
</g>
</g>
<g style="fill:#000000; fill-opacity:0.0; 
stroke:#000000; stroke-width:0.120000; stroke-opacity:1; 
stroke-linecap:round; stroke-linejoin:round;">
</g>
<g style="fill:#000000; fill-opacity:0.0; 
stroke:#000000; stroke-width:0.200000; stroke-opacity:1; 
stroke-linecap:round; stroke-linejoin:round;">
<path d="M159.300000 50.300000 A2.000000 2.000000 0.0 0 0 161.300000 48.300000" />
<path d="M78.700000 106.300000 A2.000000 2.000000 0.0 0 0 80.700000 108.300000" />
<path d="M160.271286 96.671508
L143.300000 106.100000
" />
<path d="M48.700000 36.400000
L14.100000 36.400000
" />
<path d="M118.778751 114.546146 A20.000051 20.000051 0.0 0 0 113.958639 112.549934" />
<path d="M50.700000 31.700000 A2.000000 2.000000 0.0 0 0 48.700000 33.700000" />
<path d="M100.643666 108.981673
L113.958639 112.549933
" />
<path d="M131.862590 122.097349 A2.000027 2.000027 0.0 0 0 134.597522 121.359641" />
<path d="M14.100000 93.500000
L76.700000 93.500000
" />
<path d="M78.700000 95.500000 A2.000000 2.000000 0.0 0 0 76.700000 93.500000" />
<path d="M12.100000 91.500000 A2.000000 2.000000 0.0 0 0 14.100000 93.500000" />
<path d="M48.700000 33.700000
L48.700000 36.400000
" />
<path d="M161.300000 92.600000
L161.300000 94.923193
" />
<path d="M80.700000 108.300000
L95.466577 108.300000
" />
<path d="M68.400000 31.700000
L50.700000 31.700000
" />
<path d="M134.597523 121.359641
L143.300000 106.100000
" />
<path d="M70.400000 29.300000 A2.000000 2.000000 0.0 0 0 68.400000 31.300000" />
<path d="M159.300000 29.300000
L70.400000 29.300000
" />
<path d="M100.643665 108.981677 A19.999700 19.999700 0.0 0 0 95.466577 108.300000" />
<path d="M127.200000 50.300000
L159.300000 50.300000
" />
<path d="M127.200000 90.600000
L127.200000 50.300000
" />
<path d="M118.778756 114.546138
L131.862620 122.097297
" />
<path d="M78.700000 95.500000
L78.700000 106.300000
" />
<path d="M161.300000 92.600000 A2.000000 2.000000 0.0 0 0 159.300000 90.600000" />
<path d="M160.271289 96.671513 A2.000000 2.000000 0.0 0 0 161.300000 94.923193" />
<path d="M68.400000 31.300000
L68.400000 31.700000
" />
<path d="M12.100000 38.400000
L12.100000 91.500000
" />
<path d="M161.300000 31.300000 A2.000000 2.000000 0.0 0 0 159.300000 29.300000" />
<path d="M159.300000 90.600000
L127.200000 90.600000
" />
<path d="M14.100000 36.400000 A2.000000 2.000000 0.0 0 0 12.100000 38.400000" />
<path d="M161.300000 31.300000
L161.300000 48.300000
" />
</g>
<g style="fill:#000000; fill-opacity:0.0; 
stroke:#000000; stroke-width:0.120000; stroke-opacity:1; 
stroke-linecap:round; stroke-linejoin:round;">
<path d="M140.956800 39.717000 A0.503256 0.503256 0.0 0 0 140.271000 39.031200" />
<path d="M144.131800 34.002000 A0.503256 0.503256 0.0 0 0 143.446000 33.316200" />
<path d="M149.669000 39.031200 A0.503256 0.503256 0.0 0 0 148.983200 39.717000" />
<path d="M146.494000 33.316200 A0.503256 0.503256 0.0 0 0 145.808200 34.002000" />
<g >
</g>
<g >
</g>
<g >
</g>
<g >
</g>
<g >
</g>
<g >
</g>
<g >
</g>
<g >
</g>
<g >
</g>
<g >
</g>
<g >
</g>
<g >
</g>
<g >
</g>
<g >
</g>
<g >
</g>
<g >
</g>
<g >
</g>
<g >
</g>
<g >
</g>
<g >
</g>
<g >
</g>
<g >
</g>
<g >
</g>
<g >
</g>
<g >
</g>
<g >
</g>
<g >
</g>
<g >
</g>
<g >
</g>
<g >
</g>
<g >
</g>
<g >
</g>
<g >
</g>
<g >
</g>
<g >
</g>
<g >
</g>
<g >
</g>
<g >
</g>
<g >
</g>
<g >
</g>
<g >
</g>
<g >
</g>
<g >
</g>
<g >
</g>
<g >
</g>
<g >
</g>
<g >
</g>
<g >
</g>
<g >
</g>
<g >
</g>
<g >
</g>
<g >
</g>
<g >
</g>
<g >
</g>
<g >
</g>
<g >
</g>
<g >
</g>
<g >
</g>
<g >
</g>
<g >
</g>
<g >
</g>
</g> 
</svg>
